<?xml version="1.0" encoding="UTF-8"?>
<svg id="Layer_1" data-name="Layer 1" xmlns="http://www.w3.org/2000/svg" viewBox="0 0 125.99 41.39">
  <defs>
    <style>
      .cls-1 {
        fill: #053551;
      }

      .cls-2 {
        fill: #f05a26;
      }

      .cls-3 {
        fill: #fff;
      }
    </style>
  </defs>
  <polygon class="cls-2" points="118.53 20.5 1.65 22.15 0 0 120.18 2.47 118.53 20.5"/>
  <polygon class="cls-1" points="21.78 38.59 123.69 41.39 125.99 20.01 20.25 19.01 21.78 38.59"/>
  <g>
    <path class="cls-3" d="M15.63,10.62c-.06-.02-.12-.04-.18-.06.42-.22.75-.5.99-.85.28-.41.42-.88.42-1.41,0-.8-.34-1.45-1.01-1.96-.67-.5-1.7-.76-3.07-.76h-5.28v10.38h5.58c1.4,0,2.47-.25,3.2-.76.73-.5,1.09-1.2,1.09-2.09,0-.59-.15-1.1-.45-1.53-.3-.43-.73-.75-1.28-.97ZM12.4,7.71c.49,0,.87.08,1.11.24.25.16.37.42.37.76,0,.33-.12.57-.37.74-.25.17-.62.25-1.11.25h-2.02v-2h2.02ZM14.01,13.59c-.26.17-.64.26-1.16.26h-2.46v-2.11h2.46c.51,0,.9.09,1.16.26.26.17.39.44.39.79s-.13.62-.39.79Z"/>
    <path class="cls-3" d="M24.83,8.28c-.65-.33-1.37-.5-2.16-.5-.85,0-1.61.18-2.28.53-.67.36-1.19.85-1.57,1.48-.38.63-.57,1.35-.57,2.16s.2,1.5.59,2.13c.39.63.94,1.12,1.65,1.48.71.36,1.54.54,2.5.54.76,0,1.42-.11,1.99-.33.56-.22,1.03-.54,1.41-.96l-1.47-1.56c-.28.24-.55.41-.83.53-.28.11-.62.17-1.02.17-.43,0-.79-.08-1.1-.23-.31-.15-.54-.37-.7-.66-.07-.12-.12-.26-.16-.4h5.84c0-.11.02-.23.03-.36,0-.13.01-.24.01-.34,0-.89-.2-1.64-.59-2.26-.39-.62-.91-1.09-1.56-1.42ZM21.79,10.02c.26-.15.56-.22.9-.22s.63.07.88.22c.25.15.44.36.59.63.08.16.14.34.17.53h-3.28c.03-.19.08-.37.16-.53.13-.27.33-.48.59-.63Z"/>
    <path class="cls-3" d="M32.27,13.92c-.26,0-.46-.08-.62-.24-.15-.16-.23-.39-.23-.7v-2.66h1.84v-2.11h-1.84v-2.11h-2.82v2.11h-1.17v2.11h1.17v2.7c0,1.03.29,1.8.86,2.31.57.51,1.37.76,2.4.76.38,0,.73-.04,1.08-.11.34-.07.64-.2.9-.36l-.71-1.96c-.25.17-.53.25-.86.25Z"/>
    <path class="cls-3" d="M38.73,13.92c-.26,0-.46-.08-.62-.24-.15-.16-.23-.39-.23-.7v-2.66h1.84v-2.11h-1.84v-2.11h-2.82v2.11h-1.17v2.11h1.17v2.7c0,1.03.29,1.8.86,2.31.57.51,1.37.76,2.4.76.38,0,.73-.04,1.08-.11.34-.07.64-.2.9-.36l-.71-1.96c-.25.17-.53.25-.86.25Z"/>
    <path class="cls-3" d="M47.21,8.28c-.65-.33-1.37-.5-2.16-.5-.85,0-1.61.18-2.28.53-.67.36-1.19.85-1.57,1.48-.38.63-.57,1.35-.57,2.16s.2,1.5.59,2.13c.39.63.94,1.12,1.65,1.48.71.36,1.54.54,2.5.54.76,0,1.42-.11,1.99-.33.56-.22,1.03-.54,1.41-.96l-1.47-1.56c-.28.24-.55.41-.83.53-.28.11-.62.17-1.02.17-.43,0-.79-.08-1.1-.23-.31-.15-.54-.37-.7-.66-.07-.12-.12-.26-.16-.4h5.84c0-.11.02-.23.03-.36,0-.13.01-.24.01-.34,0-.89-.2-1.64-.59-2.26-.39-.62-.91-1.09-1.56-1.42ZM44.18,10.02c.26-.15.56-.22.9-.22s.63.07.88.22c.25.15.44.36.59.63.08.16.14.34.17.53h-3.28c.03-.19.08-.37.16-.53.13-.27.33-.48.59-.63Z"/>
    <path class="cls-3" d="M53.36,8.9v-.98h-2.7v8.05h2.82v-3.69c0-.7.18-1.21.53-1.52.36-.31.82-.47,1.39-.47.1,0,.2,0,.3,0,.1,0,.21.02.34.04v-2.55c-.76,0-1.41.15-1.94.46-.3.17-.54.39-.75.66Z"/>
    <path class="cls-3" d="M70.49,11.46c.37-.56.56-1.25.56-2.05s-.19-1.46-.56-2.04c-.37-.58-.9-1.02-1.59-1.33-.69-.31-1.51-.46-2.46-.46h-4.73v10.38h2.94v-2.76h1.59l1.88,2.76h3.14l-2.24-3.27c.63-.3,1.13-.71,1.48-1.24ZM67.63,8.31c.31.27.46.64.46,1.11s-.15.86-.46,1.13c-.31.27-.77.4-1.38.4h-1.62v-3.04h1.62c.61,0,1.07.14,1.38.41Z"/>
    <path class="cls-3" d="M78.91,8.32c-.69-.36-1.47-.53-2.35-.53s-1.66.18-2.34.53c-.68.36-1.22.85-1.61,1.48-.39.63-.59,1.35-.59,2.16s.2,1.52.59,2.14c.39.63.93,1.12,1.61,1.48.68.36,1.46.53,2.34.53s1.66-.18,2.35-.53c.69-.36,1.23-.85,1.62-1.48.39-.63.59-1.34.59-2.14s-.2-1.53-.59-2.16c-.39-.63-.93-1.12-1.62-1.48ZM78.02,12.98c-.15.29-.36.51-.61.66-.25.15-.54.22-.85.22s-.6-.07-.85-.22-.46-.37-.61-.66c-.15-.29-.23-.64-.23-1.05s.08-.76.23-1.04c.15-.28.36-.49.61-.64.25-.15.54-.22.85-.22s.6.07.85.22c.25.15.45.36.61.64.15.28.23.62.23,1.04s-.08.75-.23,1.05Z"/>
    <path class="cls-3" d="M88.69,8.69c-.72-.6-1.73-.9-3.03-.9-.63,0-1.27.08-1.91.25-.64.17-1.18.4-1.64.7l.93,1.9c.28-.2.62-.36,1.02-.49.4-.13.79-.19,1.18-.19.59,0,1.03.12,1.3.36.25.22.38.53.4.91h-1.59c-.82,0-1.5.1-2.02.29-.53.19-.92.47-1.17.84-.25.37-.38.8-.38,1.29,0,.45.12.87.35,1.25.23.38.57.67,1.02.89.45.22.99.33,1.62.33.7,0,1.27-.14,1.7-.42.29-.19.51-.45.67-.77v1.05h2.63v-4.46c0-1.28-.36-2.22-1.08-2.82ZM86.4,14.09c-.25.15-.54.23-.85.23s-.58-.08-.77-.23c-.19-.15-.28-.35-.28-.59,0-.26.09-.45.27-.59.18-.14.5-.21.96-.21h1.22v.68c-.11.32-.29.55-.54.7Z"/>
    <path class="cls-3" d="M97.37,8.63c-.14-.15-.3-.29-.47-.4-.48-.3-1.07-.45-1.75-.45-.72,0-1.38.17-1.99.51-.6.34-1.08.82-1.43,1.44-.35.62-.53,1.36-.53,2.22s.18,1.58.53,2.2c.35.62.83,1.1,1.43,1.44.6.34,1.27.51,1.99.51s1.32-.15,1.8-.45c.21-.13.39-.3.56-.49v.8h2.68V4.96h-2.82v3.67ZM97.19,12.98c-.15.29-.35.51-.6.66-.25.15-.54.22-.85.22s-.62-.07-.87-.22c-.25-.15-.45-.37-.6-.66-.15-.29-.22-.64-.22-1.03,0-.43.07-.78.22-1.05.15-.28.35-.49.6-.64.25-.15.54-.22.87-.22s.6.07.85.22c.25.15.45.36.6.64.15.28.22.63.22,1.05,0,.4-.07.74-.22,1.03Z"/>
    <path class="cls-3" d="M107.96,11.65c-.28-.17-.58-.3-.92-.39-.34-.09-.67-.16-1.02-.2-.34-.04-.65-.09-.93-.13-.28-.04-.5-.11-.68-.19-.18-.08-.27-.21-.27-.36s.1-.29.3-.39c.2-.1.54-.16,1.02-.16.35,0,.72.04,1.11.12.4.08.79.24,1.19.47l.85-1.93c-.4-.23-.88-.4-1.46-.52-.58-.12-1.15-.18-1.71-.18-.85,0-1.56.12-2.14.36-.58.24-1.02.56-1.32.96-.3.4-.45.86-.45,1.37,0,.45.08.83.25,1.13.17.3.39.53.67.7.28.17.6.3.94.39.35.09.68.16,1.02.21.33.04.64.08.93.12.29.03.51.09.68.17.17.08.25.19.25.34,0,.18-.09.32-.27.42-.18.1-.51.16-.99.16s-.98-.07-1.48-.21c-.5-.14-.95-.32-1.34-.55l-.83,1.93c.4.24.92.44,1.56.59.65.16,1.31.24,2,.24.87,0,1.6-.12,2.2-.36.59-.24,1.04-.55,1.34-.95.3-.4.44-.84.44-1.32s-.09-.84-.26-1.13c-.17-.29-.4-.52-.67-.7Z"/>
    <path class="cls-3" d="M112.5,13.22c-.33-.3-.73-.45-1.2-.45s-.88.15-1.2.45c-.33.3-.49.7-.49,1.19s.16.91.49,1.22c.33.31.73.47,1.2.47s.88-.16,1.2-.47c.33-.31.49-.72.49-1.22s-.16-.89-.49-1.19Z"/>
  </g>
  <g>
    <path class="cls-3" d="M34.85,29.58c-.33-.21-.68-.37-1.07-.5-.39-.12-.77-.23-1.16-.31-.39-.08-.75-.16-1.07-.24-.32-.08-.58-.18-.78-.3-.2-.12-.3-.3-.3-.52,0-.15.05-.28.15-.41.1-.13.27-.23.5-.32.23-.08.53-.12.91-.12.42,0,.86.06,1.31.18.45.12.9.31,1.36.56l.83-2.01c-.47-.28-1.01-.5-1.62-.64-.61-.14-1.23-.21-1.87-.21-.95,0-1.73.14-2.37.43-.63.28-1.11.66-1.42,1.13-.31.47-.47.99-.47,1.56,0,.51.1.94.3,1.28.2.34.46.61.78.83.32.21.68.38,1.07.51.39.13.78.23,1.16.31.38.08.73.16,1.06.25.33.09.59.19.79.32.2.12.3.29.3.5,0,.17-.05.31-.16.43-.11.12-.27.21-.5.28-.22.06-.53.1-.92.1-.56,0-1.12-.09-1.69-.27-.56-.18-1.06-.41-1.49-.68l-.89,2.02c.45.3,1.04.55,1.77.75.73.2,1.49.3,2.29.3.95,0,1.75-.14,2.38-.43.63-.28,1.11-.66,1.42-1.14.32-.47.48-.99.48-1.55,0-.5-.1-.92-.3-1.26-.2-.33-.47-.61-.79-.81Z"/>
    <path class="cls-3" d="M43.05,27.81c-.67-.56-1.6-.84-2.82-.84-.59,0-1.18.08-1.77.23-.59.16-1.1.37-1.52.65l.87,1.76c.26-.18.57-.33.94-.45.37-.12.74-.18,1.09-.18.55,0,.95.11,1.2.34.23.2.35.49.37.85h-1.48c-.76,0-1.39.09-1.88.27-.49.18-.85.44-1.09.78-.23.34-.35.74-.35,1.2,0,.42.11.81.32,1.16.22.35.53.62.95.83.42.2.92.3,1.51.3.65,0,1.18-.13,1.58-.39.27-.18.48-.42.63-.71v.98h2.44v-4.14c0-1.18-.33-2.06-1-2.62ZM40.93,32.83c-.23.14-.5.21-.79.21s-.54-.07-.72-.21c-.17-.14-.26-.32-.26-.54,0-.24.08-.42.25-.55.17-.13.47-.19.89-.19h1.13v.63c-.1.29-.27.51-.5.65Z"/>
    <path class="cls-3" d="M48.54,27.23c0-.34.08-.59.24-.75.16-.16.37-.24.63-.24.16,0,.3.02.43.06.13.04.25.09.36.16l.65-1.84c-.21-.13-.48-.22-.79-.29-.32-.06-.63-.1-.94-.1-.99,0-1.76.27-2.3.81-.54.54-.81,1.26-.81,2.17v.18h-1.09v1.96h1.09v5.23h2.62v-5.23h1.71v-1.96h-1.79v-.15Z"/>
    <path class="cls-3" d="M56.85,27.43c-.6-.31-1.27-.46-2-.46-.79,0-1.49.17-2.11.5s-1.11.79-1.46,1.37c-.35.58-.53,1.25-.53,2s.18,1.39.54,1.98c.36.58.87,1.04,1.53,1.38.66.34,1.43.5,2.32.5.71,0,1.32-.1,1.84-.31.52-.21.96-.5,1.31-.89l-1.36-1.45c-.26.22-.51.38-.77.49-.26.11-.57.16-.95.16-.39,0-.73-.07-1.02-.21-.28-.14-.5-.35-.65-.61-.06-.11-.11-.24-.15-.37h5.42c0-.1.02-.21.03-.33,0-.12.01-.22.01-.32,0-.83-.18-1.53-.54-2.1-.36-.57-.84-1.01-1.45-1.32ZM54.03,29.05c.24-.14.52-.21.84-.21s.58.07.81.21c.23.14.41.33.54.59.08.15.13.31.16.49h-3.04c.03-.18.07-.34.15-.49.12-.25.31-.45.54-.59Z"/>
    <path class="cls-3" d="M70.62,29.58c-.33-.21-.68-.37-1.07-.5-.39-.12-.77-.23-1.16-.31-.39-.08-.75-.16-1.07-.24-.32-.08-.58-.18-.78-.3-.2-.12-.3-.3-.3-.52,0-.15.05-.28.15-.41.1-.13.27-.23.5-.32.23-.08.53-.12.91-.12.42,0,.86.06,1.31.18.45.12.9.31,1.36.56l.83-2.01c-.47-.28-1.01-.5-1.62-.64-.61-.14-1.23-.21-1.87-.21-.95,0-1.73.14-2.37.43-.63.28-1.11.66-1.42,1.13-.31.47-.47.99-.47,1.56,0,.51.1.94.3,1.28.2.34.46.61.78.83.32.21.68.38,1.07.51.39.13.78.23,1.16.31.38.08.73.16,1.06.25.33.09.59.19.79.32.2.12.3.29.3.5,0,.17-.05.31-.16.43-.11.12-.27.21-.5.28-.22.06-.53.1-.92.1-.56,0-1.12-.09-1.69-.27-.56-.18-1.06-.41-1.49-.68l-.89,2.02c.45.3,1.04.55,1.77.75.73.2,1.49.3,2.29.3.95,0,1.75-.14,2.38-.43.63-.28,1.11-.66,1.42-1.14.32-.47.48-.99.48-1.55,0-.5-.1-.92-.3-1.26-.2-.33-.47-.61-.79-.81Z"/>
    <path class="cls-3" d="M76.53,32.67c-.24,0-.43-.07-.57-.22-.14-.15-.21-.36-.21-.65v-2.46h1.71v-1.96h-1.71v-1.96h-2.62v1.96h-1.09v1.96h1.09v2.51c0,.95.27,1.67.8,2.14.53.47,1.28.71,2.23.71.35,0,.68-.03,1-.1.32-.07.59-.18.83-.34l-.66-1.82c-.23.16-.5.23-.8.23Z"/>
    <path class="cls-3" d="M81.49,28v-.91h-2.51v7.48h2.62v-3.43c0-.65.17-1.12.5-1.41.33-.29.76-.43,1.29-.43.09,0,.18,0,.28,0,.09,0,.2.02.32.03v-2.37c-.71,0-1.31.14-1.8.43-.27.16-.5.36-.7.61Z"/>
    <path class="cls-3" d="M90.62,27.43c-.6-.31-1.27-.46-2-.46-.79,0-1.49.17-2.11.5-.62.33-1.11.79-1.46,1.37-.35.58-.53,1.25-.53,2s.18,1.39.54,1.98c.36.58.87,1.04,1.53,1.38.66.34,1.43.5,2.32.5.71,0,1.32-.1,1.84-.31.52-.21.96-.5,1.31-.89l-1.36-1.45c-.26.22-.51.38-.77.49-.26.11-.57.16-.95.16-.39,0-.73-.07-1.02-.21-.28-.14-.5-.35-.65-.61-.06-.11-.11-.24-.15-.37h5.42c0-.1.02-.21.03-.33,0-.12.01-.22.01-.32,0-.83-.18-1.53-.54-2.1-.36-.57-.84-1.01-1.45-1.32ZM87.81,29.05c.24-.14.52-.21.84-.21s.58.07.81.21c.23.14.41.33.54.59.08.15.13.31.16.49h-3.04c.03-.18.07-.34.15-.49.12-.25.31-.45.54-.59Z"/>
    <path class="cls-3" d="M99.46,27.43c-.6-.31-1.27-.46-2-.46-.79,0-1.49.17-2.11.5-.62.33-1.11.79-1.46,1.37-.35.58-.53,1.25-.53,2s.18,1.39.54,1.98c.36.58.87,1.04,1.53,1.38.66.34,1.43.5,2.32.5.71,0,1.32-.1,1.84-.31.52-.21.96-.5,1.31-.89l-1.36-1.45c-.26.22-.51.38-.77.49-.26.11-.57.16-.95.16-.39,0-.73-.07-1.02-.21-.28-.14-.5-.35-.65-.61-.06-.11-.11-.24-.15-.37h5.42c0-.1.02-.21.03-.33,0-.12.01-.22.01-.32,0-.83-.18-1.53-.54-2.1-.36-.57-.84-1.01-1.45-1.32ZM96.65,29.05c.24-.14.52-.21.84-.21s.58.07.81.21c.23.14.41.33.54.59.08.15.13.31.16.49h-3.04c.03-.18.07-.34.15-.49.12-.25.31-.45.54-.59Z"/>
    <path class="cls-3" d="M106.37,32.67c-.24,0-.43-.07-.57-.22-.14-.15-.21-.36-.21-.65v-2.46h1.71v-1.96h-1.71v-1.96h-2.62v1.96h-1.09v1.96h1.09v2.51c0,.95.27,1.67.8,2.14.53.47,1.28.71,2.23.71.35,0,.68-.03,1-.1.32-.07.59-.18.83-.34l-.66-1.82c-.23.16-.5.23-.8.23Z"/>
    <path class="cls-3" d="M114.35,30.56c-.26-.16-.54-.28-.85-.36-.31-.08-.63-.14-.94-.19s-.6-.08-.86-.12c-.26-.04-.47-.1-.63-.18-.17-.08-.25-.19-.25-.34s.09-.27.28-.36c.19-.1.5-.14.94-.14.32,0,.67.04,1.03.11.37.07.73.22,1.1.44l.78-1.79c-.37-.21-.82-.37-1.36-.48-.54-.11-1.07-.17-1.59-.17-.79,0-1.45.11-1.99.33-.54.22-.95.52-1.23.89-.28.37-.42.8-.42,1.27,0,.42.08.77.23,1.05.16.28.36.49.63.65.26.16.55.28.87.36.32.09.64.15.94.19.31.04.59.08.86.11.27.03.48.09.63.16.16.07.23.18.23.32,0,.17-.08.3-.25.39-.17.1-.47.14-.92.14s-.91-.06-1.38-.19c-.47-.13-.88-.3-1.24-.51l-.77,1.79c.37.22.85.4,1.45.55.6.15,1.22.22,1.85.22.81,0,1.49-.11,2.04-.33s.96-.51,1.24-.88c.28-.37.41-.78.41-1.23s-.08-.78-.24-1.05c-.16-.27-.37-.49-.63-.65Z"/>
    <path class="cls-3" d="M118.56,32.01c-.3-.28-.67-.42-1.12-.42s-.81.14-1.12.42c-.3.28-.45.65-.45,1.11s.15.85.45,1.14c.3.29.67.43,1.12.43s.81-.14,1.12-.43c.3-.29.45-.67.45-1.14s-.15-.83-.45-1.11Z"/>
  </g>
</svg>