<?xml version="1.0" encoding="UTF-8"?>
<svg id="Layer_1" data-name="Layer 1" xmlns="http://www.w3.org/2000/svg" xmlns:xlink="http://www.w3.org/1999/xlink" viewBox="0 0 25.15 24.75">
  <defs>
    <style>
      .cls-1 {
        fill: #f15b27;
      }

      .cls-2 {
        fill: #010101;
      }

      .cls-3 {
        fill: url(#linear-gradient-2);
      }

      .cls-4 {
        fill: #f79421;
      }

      .cls-5 {
        fill: url(#linear-gradient);
      }

      .cls-6 {
        fill: #f15824;
      }

      .cls-7, .cls-8 {
        fill: #fff;
      }

      .cls-9 {
        fill: #fbb03c;
      }

      .cls-8 {
        isolation: isolate;
        opacity: .25;
      }
    </style>
    <linearGradient id="linear-gradient" x1="12.58" y1="10" x2="12.58" y2="-10.38" gradientTransform="translate(0 25.75) scale(1 -1)" gradientUnits="userSpaceOnUse">
      <stop offset="0" stop-color="#010101"/>
      <stop offset=".02" stop-color="#0d0e0e"/>
      <stop offset=".09" stop-color="#313131"/>
      <stop offset=".15" stop-color="#484848"/>
      <stop offset=".19" stop-color="#505050"/>
      <stop offset=".22" stop-color="#5c5c5c"/>
      <stop offset=".29" stop-color="#7d7c7c"/>
      <stop offset=".3" stop-color="#838383"/>
      <stop offset=".34" stop-color="#8b8a8a"/>
      <stop offset=".55" stop-color="#414141"/>
      <stop offset=".76" stop-color="#1f1c1c"/>
      <stop offset="1" stop-color="#010101"/>
    </linearGradient>
    <linearGradient id="linear-gradient-2" x1="12.48" y1="11.33" x2="12.63" y2="4.04" gradientTransform="translate(0 25.75) scale(1 -1)" gradientUnits="userSpaceOnUse">
      <stop offset="0" stop-color="#f06724"/>
      <stop offset=".07" stop-color="#f4832c"/>
      <stop offset=".14" stop-color="#f89a35"/>
      <stop offset=".19" stop-color="#f9a239"/>
      <stop offset=".27" stop-color="#faa33a"/>
      <stop offset=".37" stop-color="#faad36"/>
      <stop offset=".56" stop-color="#f89935"/>
      <stop offset="1" stop-color="#e92c27"/>
    </linearGradient>
  </defs>
  <g id="traffic_sign" data-name="traffic sign">
    <g>
      <g>
        <path class="cls-2" d="M25.14,24.29c.01-.07.01-.14,0-.22v-1.59H0v1.82h.01c.06.28.36.46.87.46h23.4c.5,0,.8-.18.87-.46h0Z"/>
        <path class="cls-5" d="M24.85,21.9s-3.36-4.03-3.51-4.21c-.15-.18-.47-.32-.73-.32H4.54c-.25,0-.58.15-.73.32-.15.18-3.51,4.21-3.51,4.21-.57.68-.31,1.23.58,1.23h23.4c.88,0,1.14-.56.58-1.23Z"/>
        <path class="cls-2" d="M24.85,21.78s-3.36-4.03-3.51-4.2c-.15-.18-.47-.32-.73-.32H4.54c-.25,0-.58.15-.73.32-.15.18-3.51,4.2-3.51,4.2-.57.68-.31,1.23.58,1.23h23.4c.88,0,1.14-.56.58-1.23Z"/>
        <g>
          <path class="cls-6" d="M20.33,18.89L14.23.76h-3.3l-6.1,18.14c-.06.09-.1.19-.1.29,0,1.01,3.51,1.83,7.85,1.83s7.85-.82,7.85-1.83c0-.1-.03-.19-.1-.29Z"/>
          <path class="cls-1" d="M10.93.25v.5c0,.14.74.25,1.65.25s1.65-.11,1.65-.25V.25h-3.3Z"/>
          <path class="cls-4" d="M14.23.25c0,.14-.74.25-1.65.25s-1.65-.11-1.65-.25.74-.25,1.65-.25,1.65.11,1.65.25Z"/>
          <path class="cls-9" d="M13.56.18c0,.07-.44.13-.99.13s-.99-.06-.99-.13.44-.13.99-.13c.54,0,.99.06.99.13Z"/>
          <path class="cls-7" d="M16.72,8.19c0,.47-1.86.85-4.14.85s-4.14-.38-4.14-.85l.59-1.76c0,.32,1.59.58,3.55.58s3.55-.26,3.55-.58l.59,1.76Z"/>
          <path class="cls-7" d="M18.54,13.57c0,.68-2.67,1.22-5.96,1.22s-5.96-.55-5.96-1.22l.85-2.53c0,.46,2.29.83,5.11.83s5.11-.37,5.11-.83l.85,2.53Z"/>
        </g>
        <path class="cls-3" d="M12.58,20.66c-3.78,0-6.96-.59-7.83-1.38.23.96,3.65,1.73,7.83,1.73s7.61-.76,7.83-1.73c-.88.79-4.05,1.38-7.83,1.38Z"/>
      </g>
      <path class="cls-8" d="M11.41.93s.18.03.33.04c.16.01.35.02.35.02l-2.1,19.63s-2.19-.18-3.46-.51L11.41.93Z"/>
    </g>
  </g>
</svg>